<svg width="144" height="144" viewBox="0 0 144 144" fill="none" xmlns="http://www.w3.org/2000/svg">
<path d="M72 96C63.7158 96 57 102.716 57 111C57 119.284 63.7158 126 72 126C80.2842 126 87 119.284 87 111C87 102.716 80.2842 96 72 96ZM72 96V72M33 48C41.2843 48 48 41.2843 48 33C48 24.7157 41.2843 18 33 18C24.7157 18 18 24.7157 18 33C18 41.2843 24.7157 48 33 48ZM33 48V52.8C33 59.5207 33 62.8812 34.3079 65.448C35.4584 67.7058 37.2941 69.5418 39.5521 70.692C42.119 72 45.4793 72 52.2 72H91.8C98.5206 72 101.881 72 104.448 70.692C106.706 69.5418 108.542 67.7058 109.692 65.448C111 62.8812 111 59.5207 111 52.8V48M111 48C119.284 48 126 41.2843 126 33C126 24.7157 119.284 18 111 18C102.716 18 96 24.7157 96 33C96 41.2843 102.716 48 111 48Z" stroke="#008DDE" stroke-width="16" stroke-linecap="round" stroke-linejoin="round"/>
</svg>
