<svg width="40" height="40" viewBox="0 0 40 40" fill="none" xmlns="http://www.w3.org/2000/svg">
<path d="M33.3333 18.3332C33.3333 19.2537 34.0794 19.9998 34.9999 19.9998C35.9204 19.9998 36.6666 19.2537 36.6666 18.3332H33.3333ZM21.9999 33.3332C22.9204 33.3332 23.6666 32.587 23.6666 31.6665C23.6666 30.746 22.9204 29.9998 21.9999 29.9998V33.3332ZM14.1392 19.4082L13.2132 20.794L13.2166 20.7962L14.1392 19.4082ZM25.9488 19.4082L26.8714 20.7962L26.8736 20.7947L25.9488 19.4082ZM33.3371 24.9998C33.3371 24.0793 32.5909 23.3332 31.6704 23.3332C30.7499 23.3332 30.0038 24.0793 30.0038 24.9998H33.3371ZM31.6704 34.996L30.4932 36.1758C31.1444 36.8253 32.1986 36.8248 32.8489 36.1745L31.6704 34.996ZM36.1784 32.845C36.8293 32.1942 36.8293 31.1388 36.1784 30.488C35.5276 29.8372 34.4723 29.8372 33.8214 30.488L36.1784 32.845ZM29.5104 30.4863C28.8589 29.8362 27.8036 29.8373 27.1534 30.4888C26.5033 31.1405 26.5044 32.1958 27.1561 32.8458L29.5104 30.4863ZM12.9999 9.99984H26.9999V6.66651H12.9999V9.99984ZM33.3333 16.3332V18.3332H36.6666V16.3332H33.3333ZM21.9999 29.9998H12.9999V33.3332H21.9999V29.9998ZM6.66659 23.6665V16.3332H3.33325V23.6665H6.66659ZM12.9999 29.9998C11.5723 29.9998 10.6018 29.9985 9.85165 29.9372C9.12095 29.8775 8.74729 29.7693 8.48662 29.6365L6.97332 32.6065C7.7822 33.0187 8.64339 33.183 9.5802 33.2595C10.4976 33.3345 11.6273 33.3332 12.9999 33.3332V29.9998ZM3.33325 23.6665C3.33325 25.0392 3.33195 26.1688 3.4069 27.0862C3.48345 28.023 3.64772 28.8842 4.05987 29.6932L7.0299 28.1798C6.89709 27.9192 6.78887 27.5455 6.72917 26.8148C6.66789 26.0647 6.66659 25.0942 6.66659 23.6665H3.33325ZM8.48662 29.6365C7.8594 29.317 7.34947 28.807 7.0299 28.1798L4.05987 29.6932C4.69904 30.9475 5.7189 31.9673 6.97332 32.6065L8.48662 29.6365ZM26.9999 9.99984C28.4276 9.99984 29.3981 10.0011 30.1483 10.0624C30.8789 10.1221 31.2526 10.2303 31.5133 10.3632L33.0266 7.39312C32.2176 6.98097 31.3564 6.81671 30.4196 6.74016C29.5023 6.66521 28.3726 6.66651 26.9999 6.66651V9.99984ZM36.6666 16.3332C36.6666 15.1403 36.6673 14.137 36.6199 13.3052L33.2919 13.4946C33.3326 14.2102 33.3333 15.1047 33.3333 16.3332H36.6666ZM36.6199 13.3052C36.5576 12.2109 36.4064 11.222 35.9399 10.3066L32.9699 11.8199C33.1222 12.1187 33.2386 12.5572 33.2919 13.4946L36.6199 13.3052ZM31.5133 10.3632C32.1404 10.6827 32.6504 11.1927 32.9699 11.8199L35.9399 10.3066C35.3008 9.05216 34.2809 8.03229 33.0266 7.39312L31.5133 10.3632ZM12.9999 6.66651C11.6273 6.66651 10.4976 6.66521 9.5802 6.74016C8.64339 6.81671 7.7822 6.98097 6.97332 7.39312L8.48662 10.3632C8.74729 10.2303 9.12095 10.1221 9.85165 10.0624C10.6018 10.0011 11.5723 9.99984 12.9999 9.99984V6.66651ZM6.66659 16.3332C6.66659 15.0681 6.66729 14.1581 6.71147 13.4347L3.38432 13.2316C3.33255 14.0796 3.33325 15.1069 3.33325 16.3332H6.66659ZM6.71147 13.4347C6.76622 12.5378 6.88132 12.1115 7.0299 11.8199L4.05987 10.3066C3.60337 11.2025 3.4493 12.1674 3.38432 13.2316L6.71147 13.4347ZM6.97332 7.39312C5.7189 8.03229 4.69904 9.05216 4.05987 10.3066L7.0299 11.8199C7.34947 11.1927 7.8594 10.6827 8.48662 10.3632L6.97332 7.39312ZM4.1219 14.7189L13.2132 20.794L15.0652 18.0223L5.97389 11.9474L4.1219 14.7189ZM26.8736 20.7947L35.8807 14.7864L34.0311 12.0134L25.0239 18.0217L26.8736 20.7947ZM13.2166 20.7962C15.2423 22.1427 16.5958 23.0718 18.1064 23.433L18.8814 20.191C18.0859 20.0008 17.3049 19.5112 15.0618 18.0202L13.2166 20.7962ZM25.0261 18.0202C22.7831 19.5112 22.0021 20.0008 21.2066 20.191L21.9816 23.433C23.4923 23.0718 24.8456 22.1427 26.8714 20.7962L25.0261 18.0202ZM18.1064 23.433C19.3801 23.7375 20.7078 23.7375 21.9816 23.433L21.2066 20.191C20.4423 20.3737 19.6458 20.3737 18.8814 20.191L18.1064 23.433ZM30.0038 24.9998V34.996H33.3371V24.9998H30.0038ZM33.8214 30.488L30.4919 33.8175L32.8489 36.1745L36.1784 32.845L33.8214 30.488ZM32.8478 33.8162L29.5104 30.4863L27.1561 32.8458L30.4932 36.1758L32.8478 33.8162Z" fill="white"/>
</svg>
