<svg width="144" height="144" viewBox="0 0 144 144" fill="none" xmlns="http://www.w3.org/2000/svg">
<path d="M18.0001 126L12.1538 124.651C11.6886 126.667 12.2947 128.78 13.7575 130.243C15.2203 131.705 17.3335 132.311 19.3493 131.846L18.0001 126ZM54.8788 97.6056C57.2219 95.2626 57.2219 91.4634 54.8787 89.1204C52.5356 86.7774 48.7366 86.7774 46.3935 89.1204L54.8788 97.6056ZM60.0001 87C60.0001 88.6566 58.6569 90 57.0001 90V102C65.2843 102 72.0001 95.2842 72.0001 87H60.0001ZM57.0001 90C55.3433 90 54.0001 88.6566 54.0001 87H42.0001C42.0001 95.2842 48.7158 102 57.0001 102V90ZM54.0001 87C54.0001 85.3428 55.3433 84 57.0001 84V72C48.7158 72 42.0001 78.7158 42.0001 87H54.0001ZM57.0001 84C58.6569 84 60.0001 85.3428 60.0001 87H72.0001C72.0001 78.7158 65.2843 72 57.0001 72V84ZM84.9691 20.5454L73.7575 31.7571L82.2427 40.2425L93.4543 29.0307L84.9691 20.5454ZM76.3519 30.2307L45.2393 39.1199L48.536 50.6582L79.6483 41.7689L76.3519 30.2307ZM27.6076 57.6839L12.1538 124.651L23.8465 127.349L39.3003 60.3822L27.6076 57.6839ZM19.3493 131.846L86.3161 116.392L83.6179 104.699L16.651 120.154L19.3493 131.846ZM104.88 98.7606L113.769 67.6482L102.231 64.3512L93.3415 95.4642L104.88 98.7606ZM112.243 70.2426L123.454 59.0307L114.969 50.5454L103.758 61.7574L112.243 70.2426ZM123.454 36.9689L107.031 20.5454L98.5459 29.0307L114.969 45.4542L123.454 36.9689ZM123.454 59.0307C124.573 57.9126 125.67 56.8223 126.515 55.8267C127.405 54.7776 128.363 53.4463 128.928 51.708L117.515 47.9998C117.634 47.6315 117.775 47.5791 117.367 48.0606C116.913 48.5957 116.227 49.2873 114.969 50.5454L123.454 59.0307ZM114.969 45.4542C116.227 46.7123 116.913 47.4039 117.367 47.939C117.775 48.4205 117.634 48.3681 117.515 47.9998L128.928 44.2916C128.363 42.5533 127.405 41.222 126.515 40.1729C125.67 39.1774 124.573 38.087 123.454 36.9689L114.969 45.4542ZM128.928 51.708C129.711 49.2979 129.711 46.7017 128.928 44.2916L117.515 47.9998L128.928 51.708ZM86.3161 116.392C89.9281 115.559 93.0847 114.904 95.7607 113.276L89.5243 103.025C88.8943 103.408 88.0363 103.68 83.6179 104.699L86.3161 116.392ZM93.3415 95.4642C92.0959 99.8238 91.7797 100.667 91.3645 101.276L101.283 108.032C103.046 105.444 103.862 102.325 104.88 98.7606L93.3415 95.4642ZM95.7607 113.276C97.9543 111.943 99.8371 110.154 101.283 108.032L91.3645 101.276C90.8827 101.984 90.2557 102.58 89.5243 103.025L95.7607 113.276ZM45.2393 39.1199C41.6752 40.1382 38.5561 40.9542 35.9675 42.7176L42.7235 52.6352C43.3329 52.22 44.1759 51.9039 48.536 50.6582L45.2393 39.1199ZM39.3003 60.3822C40.32 55.9637 40.5922 55.1056 40.9754 54.4757L30.7233 48.2391C29.0954 50.9151 28.4411 54.0721 27.6076 57.6839L39.3003 60.3822ZM35.9675 42.7176C33.8456 44.1631 32.0576 46.0457 30.7233 48.2391L40.9754 54.4757C41.4201 53.7445 42.0162 53.117 42.7235 52.6352L35.9675 42.7176ZM93.4543 29.0307C94.7125 27.7727 95.4043 27.0875 95.9395 26.6333C96.4207 26.2245 96.3685 26.3654 96.0001 26.4851L92.2921 15.0724C90.5533 15.6372 89.2225 16.5947 88.1731 17.4852C87.1777 18.3303 86.0875 19.4274 84.9691 20.5454L93.4543 29.0307ZM107.031 20.5454C105.913 19.4273 104.823 18.3303 103.827 17.4852C102.778 16.5947 101.447 15.6372 99.7081 15.0724L96.0001 26.4851C95.6317 26.3654 95.5795 26.2246 96.0607 26.6333C96.5959 27.0875 97.2877 27.7726 98.5459 29.0307L107.031 20.5454ZM96.0001 26.4851L99.7081 15.0724C97.2979 14.2893 94.7023 14.2893 92.2921 15.0724L96.0001 26.4851ZM73.7575 40.2425L103.758 70.2426L112.243 61.7574L82.2427 31.7571L73.7575 40.2425ZM46.3935 89.1204L13.7575 121.757L22.2428 130.243L54.8788 97.6056L46.3935 89.1204Z" fill="#008DDE"/>
</svg>
